<?xml version="1.0" encoding="UTF-8" standalone="no"?>
<!-- Created with Inkscape (http://www.inkscape.org/) -->

<svg
   xmlns:dc="http://purl.org/dc/elements/1.1/"
   xmlns:cc="http://creativecommons.org/ns#"
   xmlns:rdf="http://www.w3.org/1999/02/22-rdf-syntax-ns#"
   xmlns:svg="http://www.w3.org/2000/svg"
   xmlns="http://www.w3.org/2000/svg"
   xmlns:sodipodi="http://sodipodi.sourceforge.net/DTD/sodipodi-0.dtd"
   xmlns:inkscape="http://www.inkscape.org/namespaces/inkscape"
   width="731"
   height="233"
   viewBox="0 0 193.41041 61.647918"
   version="1.1"
   id="svg8"
   inkscape:version="0.92.4 (5da689c313, 2019-01-14)"
   sodipodi:docname="menuImage.svg">
  <defs
     id="defs2">
    <style
       id="style885">
      .cls-1 {
        fill-rule: evenodd;
      }
    </style>
    <style
       id="style832">
      .cls-1 {
        fill-rule: evenodd;
      }
    </style>
  </defs>
  <sodipodi:namedview
     id="base"
     pagecolor="#ffffff"
     bordercolor="#666666"
     borderopacity="1.0"
     inkscape:pageopacity="0.0"
     inkscape:pageshadow="2"
     inkscape:zoom="0.7"
     inkscape:cx="165.24513"
     inkscape:cy="50.839258"
     inkscape:document-units="mm"
     inkscape:current-layer="layer1"
     showgrid="false"
     inkscape:window-width="1360"
     inkscape:window-height="705"
     inkscape:window-x="-8"
     inkscape:window-y="-8"
     inkscape:window-maximized="1"
     units="px"
     width="731px" />
  <metadata
     id="metadata5">
    <rdf:RDF>
      <cc:Work
         rdf:about="">
        <dc:format>image/svg+xml</dc:format>
        <dc:type
           rdf:resource="http://purl.org/dc/dcmitype/StillImage" />
        <dc:title />
      </cc:Work>
    </rdf:RDF>
  </metadata>
  <g
     inkscape:label="Layer 1"
     inkscape:groupmode="layer"
     id="layer1"
     transform="translate(0,-235.35209)">
    <path
       inkscape:connector-curvature="0"
       style="opacity:1;fill:#b7c4c8;fill-opacity:1;fill-rule:evenodd;stroke:none;stroke-width:0.85280132;stroke-linecap:square;stroke-linejoin:miter;stroke-miterlimit:4;stroke-dasharray:none;stroke-dashoffset:124.72441101;stroke-opacity:1;paint-order:stroke fill markers"
       d="m 65.371957,235.47456 -8.764323,3.53828 19.573999,48.48387 3.745508,-1.51206 3.744989,1.51206 19.574,-48.48387 -8.76484,-3.53828 -14.554668,36.05154 z m 66.451243,2.76365 -29.08402,16.79174 2.44998,4.24367 -2.44998,4.24367 21.90771,12.64884 -21.90771,12.64832 4.72581,8.18555 29.08402,-16.79174 -2.33371,-4.04213 2.33371,-4.04265 -22.25653,-12.84986 22.25653,-12.84986 z"
       id="rect819" />
    <path
       d="M 0.29315498,259.47804 C 1.2099506,257.35202 2.6660387,255.4566 6.5719533,255.05399 v 15.40399 a 1.7275936,1.7275936 0 0 1 -1.7271286,1.69179 H 4.5035835 l -0.00422,0.26965 H 14.70616 c 6.753469,0 10.771193,-3.50516 10.762593,-9.43296 0.0088,-5.93639 -4.008893,-9.44179 -10.762593,-9.44086 H 8.474084 c -4.3773293,0.0104 -7.69583429,1.82104 -8.45084322,5.82528 z m 11.80863202,-4.53959 2.063954,-0.0442 c 3.35593,-0.002 5.378274,3.01841 5.369673,8.08938 0.0086,5.09376 -2.013743,8.08659 -5.369673,8.07473 h -2.063954 z m 17.993521,-1.39472 v 0.26803 h 0.325434 a 1.7285235,1.7285235 0 0 1 1.722247,1.69342 v 14.96116 a 1.7266638,1.7266638 0 0 1 -1.726431,1.68251 h -0.343101 v 0.26964 h 9.690284 l -0.0044,-0.26964 H 39.4267 a 1.7285235,1.7285235 0 0 1 -1.735497,-1.69482 v -15.50907 h 1.196439 c 1.779663,0 3.775042,1.05163 3.881971,3.55933 a 5.9043163,5.9043163 0 0 1 -0.05393,1.10532 c -0.35054,2.48074 -2.318954,3.31664 -3.694149,3.31664 l -0.43399,0.005 v 0.2557 c 0.514884,0.17086 0.973282,0.92586 1.404716,1.81569 0.59322,1.18551 1.887521,4.34131 3.343609,6.71396 5.797155,9.46434 14.506487,7.36133 17.440746,5.28506 v -0.26965 c -5.764844,-0.35054 -9.028025,-2.83129 -12.101988,-7.22651 -1.914487,-2.75016 -3.154626,-5.25787 -5.692552,-5.80762 2.888466,0.30708 5.584693,-1.68831 5.584693,-5.03169 0,-4.42219 -4.718804,-5.12326 -7.961762,-5.12326 z m 49.199693,23.21606 c -4.904768,1.32103 -7.615173,-4.17952 -9.517106,-8.5264 l -4.323636,-9.87787 c -2.442388,-5.57888 -6.425478,-8.22118 -11.49761,-5.18557 l 0.05067,0.27244 c 3.073731,-1.12647 4.70602,2.01792 5.883164,5.1837 l -5.511239,12.06434 c -0.582993,1.02651 -1.483749,1.45725 -2.238758,1.45725 h -0.242682 v 0.26965 h 6.020544 v -0.26732 h -0.237097 c -0.697361,0 -1.510948,-0.61368 -1.035349,-1.69273 l 1.083001,-2.51631 h 5.77205 l 0.730136,1.79152 c 3.241331,7.94246 10.108705,10.20749 15.115519,7.29531 z m -20.979387,-10.16612 2.421932,-5.55564 c 0.175735,0.50397 0.345659,0.97491 0.514885,1.38961 l 1.698072,4.1658 h -4.633958 z m 34.772007,-0.84613 c -0.0089,3.70484 -2.273855,5.67326 -5.170463,5.65977 -3.116267,0.0135 -5.219505,-2.22457 -5.216948,-6.00728 v -10.30676 a 1.3696154,1.3696154 0 0 1 1.421683,-1.27989 h 0.441663 v -0.26965 h -9.251648 v 0.26965 h 0.431436 a 1.3731022,1.3731022 0 0 1 1.433307,1.33452 v 10.37858 c -0.08504,4.41127 3.474246,7.26952 9.487121,7.26952 5.716263,0 8.682365,-2.5886 8.763492,-7.31648 v -10.0478 c 0,-4.3148 1.613456,-7.15259 4.906166,-7.58821 v -0.26964 c -4.454971,-0.50512 -7.242321,3.54305 -7.242321,7.85692 z m 30.007869,-2.10277 v -0.26825 h -9.05638 v 0.26965 h 0.42516 c 0.8703,-0.002 1.39472,0.44165 1.38705,1.22827 l -0.0407,3.69927 c 0,1.87845 -1.795,2.87591 -3.55095,2.87591 -3.58304,0.004 -5.17395,-3.15648 -5.17395,-8.25209 0,-5.52751 1.88752,-8.68237 6.19395,-8.68237 2.43449,0.002 5.05005,0.99955 6.1928,5.03703 h 0.22431 l 0.26477,-5.15651 c -1.58394,-0.66923 -5.05331,-1.22759 -8.01965,-1.22759 -6.77159,0 -10.78909,3.66696 -10.78909,9.76096 0,6.20162 4.15231,9.8688 10.52526,9.8688 4.49355,0 8.37646,-1.83359 9.67006,-3.47331 v -4.45568 c -0.0233,-0.78476 0.46747,-1.22456 1.33916,-1.22456 z m 27.69683,-14.46883 c -5.43082,-1.32127 -8.98317,2.69646 -8.98991,6.79507 v 6.33622 h -7.23813 v -6.83692 a 1.7201552,1.7201552 0 0 1 1.72573,-1.65902 h 0.34125 l 0.004,-0.26965 h -9.67378 l 0.004,0.26965 h 0.34589 a 1.7234095,1.7234095 0 0 1 1.72179,1.67111 v 15.04671 c 0,2.69646 -0.0465,5.15 -3.52841,6.5252 v 0.26964 c 6.61841,2.04931 9.05917,-2.69669 9.05917,-6.79484 v -6.87598 h 7.22558 v 6.79881 a 1.7447952,1.7447952 0 0 1 -1.73828,1.69551 h -0.34124 l -0.004,0.26964 h 9.67471 l -0.004,-0.26964 h -0.34101 a 1.7294533,1.7294533 0 0 1 -1.72736,-1.69551 v -14.48348 c 0.0267,-2.42682 0,-5.44662 3.48401,-6.5252 z m 22.20395,3.85129 c -0.4942,0.20921 -2.01537,0.47304 -3.17253,0.49001 h -13.77728 c -4.39732,0 -6.44663,4.02377 -3.12998,6.92432 l 0.2887,-0.13482 c -1.98748,-3.12534 -0.13412,-5.44197 2.84128,-5.44197 h 5.03494 v 15.62993 a 1.7243393,1.7243393 0 0 1 -1.72573,1.65507 h -0.34101 l -0.004,0.26965 h 9.6782 l -0.004,-0.26965 h -0.3417 a 1.7264314,1.7264314 0 0 1 -1.72596,-1.67367 v -15.61063 h 2.6488 c 2.17995,0.0435 3.46355,1.34312 3.45961,3.4947 v 0.21084 l 0.2722,0.004 z m 11.6408,6.27299 c -1.2599,-0.71387 -2.50121,-1.2262 -2.39428,-2.52027 0.10926,-1.32126 1.45749,-2.26503 3.66812,-2.26503 2.66856,0 4.28644,1.34824 4.29806,3.31572 h 0.26036 l 0.58112,-4.38733 h -2.09673 c -1.56673,-0.1562 -3.5821,-0.27661 -4.55143,-0.27661 -3.72205,0 -5.93314,1.80662 -6.28369,4.82642 -0.2966,2.53375 0.86288,4.36827 3.30596,5.80786 l 4.39569,2.57024 c 4.53982,2.5693 2.92194,7.34203 -2.01304,7.34203 -4.82573,0 -8.4018,-4.53005 -5.77996,-9.26373 l -0.24268,-0.18875 c -3.40382,4.78854 -0.55603,10.9625 6.64328,10.9625 8.71003,0 12.241,-9.08683 5.24881,-13.05644 z"
       class="cls-1"
       id="DRAUgHTS"
       inkscape:connector-curvature="0"
       style="fill:#5d3a23;fill-opacity:1;fill-rule:evenodd;stroke-width:0.23245339" />
  </g>
</svg>
